<svg xmlns="http://www.w3.org/2000/svg" xmlns:svg="http://www.w3.org/2000/svg" id="svg13" width="16" height="16" version="1.1" viewBox="0 0 16 16"><metadata id="metadata17"/><title id="title2">text</title><desc id="desc4">Created with Sketch.</desc><path id="path82" d="m 8.0016982,4.6399885 c -3.9279215,-0.00253 -6.0153696,3.1430123 -6.0153696,3.1430123 0,0 2.2606716,3.5965422 6.0153696,3.5965422 3.7546978,0 5.9982998,-3.5965422 5.9983018,-3.5965422 0,0 -2.07038,-3.1404832 -5.9983018,-3.1430123 z M 7.9919448,5.629952 A 2.3793243,2.3793243 0 0 1 10.371759,8.0097658 2.3793243,2.3793243 0 0 1 7.9919448,10.38958 2.3793243,2.3793243 0 0 1 5.612131,8.0097658 2.3793243,2.3793243 0 0 1 7.9919448,5.629952 Z m 0.00244,0.9631419 A 1.4173504,1.4173504 0 0 0 6.5752729,8.0097658 1.4173504,1.4173504 0 0 0 7.9943831,9.4264377 1.4173504,1.4173504 0 0 0 9.4110551,8.0097658 1.4173504,1.4173504 0 0 0 7.9943831,6.5930939 Z" style="fill:#666;fill-opacity:1;stroke:none;stroke-width:1.24843px;stroke-linecap:butt;stroke-linejoin:miter;stroke-opacity:1"/></svg>