<svg xmlns="http://www.w3.org/2000/svg" xmlns:svg="http://www.w3.org/2000/svg" id="svg13" width="16" height="16" version="1.1" viewBox="0 0 16 16"><metadata id="metadata17"/><title id="title2">text</title><desc id="desc4">Created with Sketch.</desc><path id="path907" d="M 7.8300781,1.9960938 C 7.1107092,1.992596 6.7769846,2.0754411 6.2929688,2.2832031 5.8089529,2.490965 5.2693149,2.6931416 4.6777344,3.5742188 4.086154,4.455296 4.1523438,5 4.1523438,5 h 1.3925781 c 0,0 0.1406654,-1.0375087 0.6503906,-1.4511719 C 6.7050377,3.1351649 6.8806933,3.0985394 7.2695312,3 7.4639503,2.9507305 7.6620348,2.9273761 7.859375,2.9277344 8.0567152,2.9280926 8.2534561,2.9521635 8.4453125,3 8.8290254,3.0956725 9.0048217,3.124527 9.5019531,3.5625 9.9990845,4.000473 10.183594,5 10.183594,5 V 7.4003906 L 3.4375,7.4179688 3.4199219,13.613281 c 0,0 -0.02038,0.196154 0.109375,0.3125 C 3.6590521,14.042131 3.7851562,14 3.7851562,14 H 12 c 0,0 0.125038,0.0035 0.216797,-0.117188 0.09176,-0.120663 0.06836,-0.273437 0.06836,-0.273437 V 7.4003906 H 11.533203 L 11.537109,5 c 0,0 0.05441,-0.4898041 -0.441406,-1.3222656 C 10.599892,2.845273 10.265524,2.7252517 9.7207031,2.4296875 9.175882,2.1341232 8.549447,1.9995915 7.8300781,1.9960938 Z" style="fill:#666;fill-opacity:1;stroke:none;stroke-width:1px;stroke-linecap:butt;stroke-linejoin:miter;stroke-opacity:1"/></svg>